<svg version="1.1" id="Layer_1" xmlns="http://www.w3.org/2000/svg" xmlns:xlink="http://www.w3.org/1999/xlink" x="0px" y="0px"
	 width="100%" viewBox="0 0 1024 1024" enable-background="new 0 0 1024 1024" xml:space="preserve">
<path fill="#000000" opacity="1.000000" stroke="none" 
	d="
M453.214172,549.791748 
	C430.730103,529.467285 409.102203,508.722900 386.300323,489.278229 
	C385.583221,488.666687 384.539154,488.293457 383.371490,488.846436 
	C381.803497,490.169464 382.215515,492.119232 382.211853,493.886597 
	C382.135376,530.874023 381.930969,567.862549 382.172821,604.848083 
	C382.225098,612.840515 380.160614,618.802734 374.358063,624.731506 
	C355.608521,643.888794 337.600769,663.771484 319.270325,683.340210 
	C317.152985,685.600525 315.175537,688.085510 312.366058,689.630249 
	C309.628479,685.256348 308.977234,328.140045 311.512970,319.278992 
	C313.504333,318.507721 314.604919,320.000122 315.787903,321.077301 
	C342.622559,345.511444 369.433319,369.971802 396.261932,394.412567 
	C420.384155,416.387817 444.531586,438.335358 468.649719,460.315094 
	C482.064514,472.540466 495.512177,484.731598 508.775879,497.119324 
	C511.351074,499.524445 512.937927,499.368774 515.383789,497.132477 
	C532.219788,481.738953 549.138489,466.435730 566.065491,451.142059 
	C604.118225,416.761200 642.187073,382.398285 680.258728,348.038391 
	C690.147339,339.113892 700.069641,330.226715 709.978760,321.324860 
	C710.933411,320.467224 711.642395,319.156891 713.703857,319.559631 
	C714.799927,322.325104 714.984314,325.421356 714.984558,328.531586 
	C714.988037,368.519531 714.910828,408.507721 715.041321,448.495209 
	C715.059692,454.118683 713.050171,457.833557 708.777893,461.625610 
	C692.838074,475.773682 677.431030,490.520233 661.737549,504.948059 
	C640.162903,524.782776 618.522827,544.546448 596.885376,564.312744 
	C580.293823,579.469421 563.668152,594.588684 547.045532,609.711304 
	C543.844116,612.623901 540.406677,615.300598 537.403809,618.401550 
	C534.172668,621.738281 531.518616,621.053772 528.444031,618.249146 
	C503.482239,595.478882 478.466919,572.767395 453.214172,549.791748 
M527.759277,489.265991 
	C522.723633,494.059509 517.688049,498.852997 512.552612,503.741547 
	C446.023499,443.090240 379.820221,382.735992 312.710999,321.555817 
	C312.710999,444.021637 312.710999,564.860107 312.710999,686.401367 
	C314.091522,685.155884 314.985352,684.461975 315.747711,683.645386 
	C335.637665,662.338928 355.476471,640.984375 375.432465,619.739990 
	C378.473907,616.502258 379.771729,613.121582 379.732788,608.599915 
	C379.397003,569.627319 379.266785,530.652832 379.146484,491.678650 
	C379.135101,487.994415 378.811584,484.166626 380.730865,480.659515 
	C383.111603,480.895142 384.136169,482.542297 385.416992,483.771606 
	C389.623474,487.808929 393.701813,491.985260 398.008148,495.912140 
	C425.568848,521.044128 453.190399,546.109436 480.765259,571.225952 
	C497.139679,586.140503 513.507202,601.063416 529.768860,616.100403 
	C532.274353,618.417236 533.890015,618.423889 536.386230,616.069092 
	C544.741943,608.186890 553.315002,600.534729 561.815735,592.806458 
	C586.089783,570.738098 610.435913,548.748596 634.627930,526.590759 
	C659.319214,503.975708 683.817993,481.150391 708.524963,458.552612 
	C711.508728,455.823578 712.800232,453.038696 712.663818,449.015778 
	C711.568359,416.699341 712.277283,384.368958 712.100220,352.044647 
	C712.047974,342.503967 712.092163,332.962769 712.092163,322.964447 
	C710.795837,324.047638 709.777161,324.848206 708.814209,325.710968 
	C692.071838,340.710754 675.293579,355.670837 658.608948,370.734680 
	C631.541504,395.172729 604.531128,419.673950 577.507141,444.159943 
	C561.094299,459.031433 544.701050,473.924469 527.759277,489.265991 
z"/>
<path fill="#000000" opacity="1.000000" stroke="none" 
	d="
M714.925781,610.000000 
	C714.932556,636.836975 714.932556,663.173889 714.932556,689.584045 
	C711.228760,689.447144 710.073792,687.691895 708.726196,686.272217 
	C684.422363,660.666626 659.983521,635.186829 635.906372,609.369690 
	C626.479675,599.261658 624.878601,601.373840 636.343567,590.884338 
	C660.414551,568.861328 684.511658,546.866943 708.606445,524.869995 
	C709.926941,523.664429 711.105408,522.175598 713.402588,522.004883 
	C715.227539,524.263489 714.896912,526.947632 714.898254,529.533813 
	C714.912537,556.189209 714.913940,582.844666 714.925781,610.000000 
M658.296753,629.210632 
	C676.143555,648.096680 693.990356,666.982727 712.174683,686.225952 
	C712.174683,632.242676 712.174683,579.121094 712.174683,525.683655 
	C711.216675,526.154175 710.699890,526.280212 710.355957,526.595154 
	C684.814087,549.987976 659.305176,573.416870 633.727417,596.770325 
	C631.100830,599.168457 631.371521,601.001038 633.676392,603.376831 
	C641.795654,611.745728 649.801941,620.224121 658.296753,629.210632 
z"/>
</svg>